<svg xmlns="http://www.w3.org/2000/svg" width="1920" height="600" viewBox="0 0 1920 600" preserveAspectRatio="xMidYMid slice">
  <defs>
    <linearGradient id="bgGrad" x1="0" y1="0" x2="1" y2="1">
      <stop offset="0%" stop-color="#0f0a29"/>
      <stop offset="35%" stop-color="#2b0066"/>
      <stop offset="70%" stop-color="#7b2ff7"/>
      <stop offset="100%" stop-color="#b388ff"/>
    </linearGradient>

    <linearGradient id="neonLine" x1="0" y1="0" x2="1" y2="0">
      <stop offset="0%" stop-color="#9b5cff" stop-opacity="0.0"/>
      <stop offset="20%" stop-color="#a464ff" stop-opacity="0.6"/>
      <stop offset="80%" stop-color="#6f2bff" stop-opacity="0.6"/>
      <stop offset="100%" stop-color="#00fff0" stop-opacity="0.0"/>
    </linearGradient>

    <radialGradient id="glowA" cx="50%" cy="40%" r="50%">
      <stop offset="0%" stop-color="#b48cff" stop-opacity="0.95"/>
      <stop offset="60%" stop-color="#7b2ff7" stop-opacity="0.35"/>
      <stop offset="100%" stop-color="#7b2ff7" stop-opacity="0.0"/>
    </radialGradient>

    <radialGradient id="glowB" cx="30%" cy="70%" r="40%">
      <stop offset="0%" stop-color="#6efff0" stop-opacity="0.85"/>
      <stop offset="60%" stop-color="#6efff0" stop-opacity="0.12"/>
      <stop offset="100%" stop-color="#6efff0" stop-opacity="0.0"/>
    </radialGradient>

    <filter id="fblur" x="-50%" y="-50%" width="200%" height="200%">
      <feGaussianBlur stdDeviation="35" result="blur"/>
      <feBlend in="SourceGraphic" in2="blur" mode="screen"/>
    </filter>

    <pattern id="grid" width="40" height="40" patternUnits="userSpaceOnUse">
      <path d="M40 0 L0 0 0 40" fill="none" stroke="rgba(255,255,255,0.03)" stroke-width="1"/>
    </pattern>

  </defs>

  <!-- Background gradient -->
  <rect width="100%" height="100%" fill="url(#bgGrad)"/>

  <!-- soft glows -->
  <g filter="url(#fblur)">
    <circle cx="420" cy="170" r="240" fill="url(#glowA)"/>
    <circle cx="1480" cy="380" r="180" fill="url(#glowB)"/>
  </g>

  <!-- diagonal neon streaks -->
  <g stroke-linecap="round" stroke-linejoin="round" stroke-width="3" opacity="0.95">
    <path d="M-200 520 L600 -100" stroke="url(#neonLine)" stroke-width="6" opacity="0.55"/>
    <path d="M-100 400 L700 -220" stroke="url(#neonLine)" stroke-width="4" opacity="0.33"/>
    <path d="M400 700 L1700 -80" stroke="url(#neonLine)" stroke-width="5" opacity="0.45"/>
  </g>

  <!-- faint grid overlay -->
  <rect width="100%" height="100%" fill="url(#grid)" opacity="0.65"/>

  <!-- subtle dots / stars -->
  <g fill="#ffffff" opacity="0.08">
    <circle cx="120" cy="80" r="1.4"/>
    <circle cx="260" cy="40" r="1.8"/>
    <circle cx="330" cy="160" r="1.2"/>
    <circle cx="520" cy="90" r="1.6"/>
    <circle cx="880" cy="220" r="1.2"/>
    <circle cx="1400" cy="60" r="1.7"/>
    <circle cx="1700" cy="180" r="1.3"/>
    <circle cx="1600" cy="480" r="1.5"/>
  </g>

  <!-- small circuit-like lines for futurism -->
  <g stroke="#c9b3ff" stroke-opacity="0.18" stroke-width="2" fill="none">
    <path d="M200 520 h80 v-30 h40"/>
    <path d="M300 480 h200 v-40 h40"/>
    <path d="M1100 520 h120 v-25 h20"/>
    <path d="M1420 460 h60 v-30 h30"/>
  </g>

  <!-- optional translucent overlay to darken center for text readability -->
  <rect x="220" y="120" width="1480" height="360" rx="16" fill="black" opacity="0.06"/>
</svg>
